<svg xmlns="http://www.w3.org/2000/svg" xmlns:xlink="http://www.w3.org/1999/xlink" viewBox="0 0 500 500"><defs><linearGradient id="eed70a5d-3465-468c-b304-842a4dc6abf4" x1="90.9" y1="409.1" x2="409.1" y2="90.9" gradientUnits="userSpaceOnUse"><stop offset="0.35" stop-color="#1aa9ff"/><stop offset="0.44" stop-color="#22acff"/><stop offset="0.58" stop-color="#37b4ff"/><stop offset="0.75" stop-color="#5ac1ff"/><stop offset="0.89" stop-color="#7cceff"/></linearGradient></defs><title>Artboard 1</title><g id="a694bf81-a4e3-4986-9301-cf65ad1fcac0" data-name="Layer 1"><path d="M250,499.5A249.5,249.5,0,0,1,73.58,73.58,249.5,249.5,0,1,1,426.42,426.42,247.84,247.84,0,0,1,250,499.5Z" fill="#fff"/><path d="M250,1A248.93,248.93,0,0,1,426.07,426.07a249,249,0,1,1-273-405.5A247.32,247.32,0,0,1,250,1m0-1C111.93,0,0,111.93,0,250S111.93,500,250,500,500,388.07,500,250,388.07,0,250,0Z" fill="#fff"/><circle cx="250" cy="250" r="225" fill="url(#eed70a5d-3465-468c-b304-842a4dc6abf4)"/></g><g id="4dca974f-b6d8-4b4f-b13a-2551c52acb2b" data-name="Layer 3"><path d="M462,325l-1.24,3.94C428.79,414.27,346.49,475,250,475c-98,0-181.41-62.69-212.25-150.16L461,325"/></g><g id="1a30999d-582a-4788-8e9a-e662ea057375" data-name="Layer 2"><polygon points="38 325 103 225 152 281 250 112 346 221 377 182 469 306 38 325" fill="#fff"/></g><g id="93c33bb2-e13c-4346-ae21-ff33957a2372" data-name="Layer 4"><polyline points="38 326 108 250.66 152 278.91 250 148 346 221.46 377 208.28 469 306.22 462 326"/><path d="M103.5,134.51c.26.33,4.76,5.92,12,5.14a14,14,0,0,0,10.29-6.86" fill="none" stroke="#000" stroke-miterlimit="10" stroke-width="6"/><path d="M134.83,153.38c.26.33,4.76,5.92,12,5.14,6.75-.72,10-6.33,10.29-6.86" fill="none" stroke="#000" stroke-miterlimit="10" stroke-width="6"/><path d="M159.7,124.22c.26.33,4.76,5.91,12,5.14A14,14,0,0,0,182,122.5" fill="none" stroke="#000" stroke-miterlimit="10" stroke-width="6"/></g></svg>