<svg id="51e03453-3005-4bec-8a85-3537ac3baa1c" data-name="2a187113-77de-4746-bddb-51ba6d7eadb9" xmlns="http://www.w3.org/2000/svg" xmlns:xlink="http://www.w3.org/1999/xlink" viewBox="0 0 500 500"><defs><linearGradient id="5a66dcd0-9e68-4b17-b731-b1c4697b7264" x1="79.25" y1="-45.75" x2="420.75" y2="545.75" gradientTransform="matrix(1, 0, 0, -1, 0, 500)" gradientUnits="userSpaceOnUse"><stop offset="0" stop-color="#2f95e3"/><stop offset="0.15" stop-color="#349be7"/><stop offset="0.35" stop-color="#43abf2"/><stop offset="0.41" stop-color="#4bb4f8"/><stop offset="0.52" stop-color="#55bfff"/><stop offset="0.64" stop-color="#55d3ff"/><stop offset="0.79" stop-color="#55e0ff"/><stop offset="1" stop-color="#55e5ff"/></linearGradient><linearGradient id="9fd6d12c-9402-4b19-941b-99c296cee78f" x1="171.38" y1="368.22" x2="328.62" y2="368.22" gradientUnits="userSpaceOnUse"><stop offset="0"/><stop offset="0.25" stop-color="#0e171d"/><stop offset="0.54" stop-color="#1a2c38"/><stop offset="0.8" stop-color="#223848"/><stop offset="1" stop-color="#253d4e"/></linearGradient><linearGradient id="aa52fb93-b4cb-4c03-a4c3-70fb4b1d8fa6" x1="148.36" y1="288.12" x2="351.64" y2="288.12" gradientUnits="userSpaceOnUse"><stop offset="0" stop-color="#151515"/><stop offset="0.09" stop-color="#171b1d"/><stop offset="0.44" stop-color="#1f2d38"/><stop offset="0.76" stop-color="#233948"/><stop offset="1" stop-color="#253d4e"/></linearGradient><linearGradient id="f47ca9b4-d1c0-4978-beb5-2c9edf622c63" x1="148.36" y1="212.79" x2="351.64" y2="212.79" xlink:href="#aa52fb93-b4cb-4c03-a4c3-70fb4b1d8fa6"/><linearGradient id="e2525f95-e24f-46bd-8a34-402a5eadfc59" x1="132.25" y1="166.04" x2="367.75" y2="166.04" xlink:href="#aa52fb93-b4cb-4c03-a4c3-70fb4b1d8fa6"/><linearGradient id="ed38de44-e35f-498b-924f-87af89b57df6" x1="269.64" y1="391.83" x2="66.36" y2="391.83" gradientTransform="translate(418 515.5) rotate(180)" xlink:href="#aa52fb93-b4cb-4c03-a4c3-70fb4b1d8fa6"/></defs><title>philosophybreak</title><rect width="500" height="500" fill="url(#5a66dcd0-9e68-4b17-b731-b1c4697b7264)"/><line x1="322.22" y1="387.85" x2="351.64" y2="198.15" fill="none"/><line x1="148.36" y1="197.65" x2="177.78" y2="387.35" fill="none"/><line x1="351.64" y1="197.65" x2="322.22" y2="387.85" fill="none"/><polygon points="322.22 388.22 177.78 388.22 171.38 348.22 328.62 348.22 322.22 388.22" fill="url(#9fd6d12c-9402-4b19-941b-99c296cee78f)"/><polygon points="337.68 330.54 162.32 330.54 148.36 245.7 351.64 245.7 337.68 330.54" fill="url(#aa52fb93-b4cb-4c03-a4c3-70fb4b1d8fa6)"/><polygon points="148.36 198.69 351.64 198.69 347.33 226.89 152.65 226.89 148.36 198.69" fill="url(#f47ca9b4-d1c0-4978-beb5-2c9edf622c63)"/><rect x="132.25" y="151.94" width="235.5" height="28.2" fill="url(#e2525f95-e24f-46bd-8a34-402a5eadfc59)"/><polygon points="351.64 135.55 148.36 135.55 152.67 111.78 347.35 111.78 351.64 135.55" fill="url(#ed38de44-e35f-498b-924f-87af89b57df6)"/><line x1="148.36" y1="202.32" x2="177.78" y2="391.85" fill="none"/><line x1="351.64" y1="202.32" x2="322.22" y2="391.85" fill="none"/></svg>