<svg id="4f58d312-4fa0-4ab3-8ae4-53894138d3f6" data-name="Layer 1" xmlns="http://www.w3.org/2000/svg" xmlns:xlink="http://www.w3.org/1999/xlink" viewBox="0 0 500 500"><defs><linearGradient id="5dddace0-4b5c-4771-9df3-f8749c8e3c12" x1="79.25" y1="-45.75" x2="420.75" y2="545.75" gradientTransform="matrix(1, 0, 0, -1, 0, 500)" gradientUnits="userSpaceOnUse"><stop offset="0" stop-color="#2f95e3"/><stop offset="0.15" stop-color="#349be7"/><stop offset="0.35" stop-color="#43abf2"/><stop offset="0.52" stop-color="#55bfff"/><stop offset="0.68" stop-color="#55d3ff"/><stop offset="0.85" stop-color="#55e0ff"/><stop offset="1" stop-color="#55e5ff"/></linearGradient><linearGradient id="bf6990f0-1ada-4e4a-9c56-3430bc81418e" x1="171.38" y1="369.68" x2="328.62" y2="369.68" gradientUnits="userSpaceOnUse"><stop offset="0"/><stop offset="1" stop-color="#253d4e"/></linearGradient><linearGradient id="0742fa5e-f8be-4272-b563-c003758144db" x1="148.36" y1="288.75" x2="351.64" y2="288.75" gradientUnits="userSpaceOnUse"><stop offset="0" stop-color="#151515"/><stop offset="1" stop-color="#253d4e"/></linearGradient><linearGradient id="a220fa30-1d77-4ab8-a3bb-1726574f4dbc" x1="153.34" y1="212.25" x2="346.66" y2="212.25" xlink:href="#0742fa5e-f8be-4272-b563-c003758144db"/><linearGradient id="a2140097-e41b-4318-94ec-b319cb835ab5" x1="153.66" y1="123.39" x2="346.34" y2="123.39" xlink:href="#0742fa5e-f8be-4272-b563-c003758144db"/><linearGradient id="8d1b18af-8ae0-46d1-9bd7-87bad614743b" x1="185.33" y1="230.25" x2="314.67" y2="100.92" xlink:href="#0742fa5e-f8be-4272-b563-c003758144db"/></defs><title>philosophybreak</title><g id="9128c53b-0e63-40a8-8ce2-d23721a42e58" data-name="2639f75b-3f81-495e-82db-e345fe08d5c4"><rect width="500" height="500" fill="url(#5dddace0-4b5c-4771-9df3-f8749c8e3c12)"/><polygon points="322.22 388.85 177.78 388.85 171.38 350.5 328.62 350.5 322.22 388.85" fill="url(#bf6990f0-1ada-4e4a-9c56-3430bc81418e)"/><polygon points="337.68 327.5 162.32 327.5 148.36 250 351.64 250 337.68 327.5" fill="url(#0742fa5e-f8be-4272-b563-c003758144db)"/><polygon points="153.34 198.15 346.66 198.15 342.56 226.35 157.42 226.35 153.34 198.15" fill="url(#a220fa30-1d77-4ab8-a3bb-1726574f4dbc)"/><polygon points="157.07 113.15 342.93 113.15 346.34 133.63 153.66 133.63 157.07 113.15" fill="url(#a2140097-e41b-4318-94ec-b319cb835ab5)"/><rect x="132.25" y="154" width="235.5" height="23.16" fill="url(#8d1b18af-8ae0-46d1-9bd7-87bad614743b)"/></g></svg>